<svg width="27" height="30" viewBox="0 0 27 30" fill="none" xmlns="http://www.w3.org/2000/svg">
<path d="M18.7563 29.4619C24.0063 29.4619 26.4423 26.3539 26.4423 21.1039V1.36385H22.4943V21.8179C22.4943 24.4219 21.2343 26.3119 18.6723 26.3119C16.2363 26.3119 15.3963 24.3379 15.3963 21.8179V9.30186C15.3963 4.13586 13.2963 0.901855 8.38234 0.901855C3.30034 0.901855 0.402344 3.67385 0.402344 9.30186V28.9999H4.35034V8.58786C4.35034 6.02585 5.56834 4.09385 8.17234 4.09385C10.6083 4.09385 11.4483 6.06786 11.4483 8.58786V21.1039C11.4483 26.4799 13.5063 29.4619 18.7563 29.4619Z" fill="#2EE57C"/>
</svg>
